<?xml version="1.0" encoding="utf-8"?>
<!-- This file is generated by @oviirup/sprite -->
<svg xmlns="http://www.w3.org/2000/svg">
<symbol id="arrow-down"><path d="M12 5v14m7-7-7 7-7-7"/></symbol>
<symbol id="arrow-down-left"><path d="M17 7 7 17m10 0H7V7"/></symbol>
<symbol id="arrow-down-right"><path d="m7 7 10 10m0-10v10H7"/></symbol>
<symbol id="arrow-down-to-line"><path d="M12 17V3m-6 8 6 6 6-6m1 10H5"/></symbol>
<symbol id="arrow-left"><path d="m12 19-7-7 7-7m7 7H5"/></symbol>
<symbol id="arrow-left-to-line"><path d="M3 19V5m10 1-6 6 6 6m-6-6h14"/></symbol>
<symbol id="arrow-right"><path d="M5 12h14m-7-7 7 7-7 7"/></symbol>
<symbol id="arrow-right-to-line"><path d="M17 12H3m8 6 6-6-6-6m10-1v14"/></symbol>
<symbol id="arrow-up"><path d="m5 12 7-7 7 7m-7 7V5"/></symbol>
<symbol id="arrow-up-left"><path d="M7 17V7h10m0 10L7 7"/></symbol>
<symbol id="arrow-up-right"><path d="M7 7h10v10M7 17 17 7"/></symbol>
<symbol id="arrow-up-to-line"><path d="M5 3h14m-1 10-6-6-6 6m6-6v14"/></symbol>
<symbol id="asterisk"><path d="M12 6v12m5.2-9L6.8 15m0-6 10.4 6"/></symbol>
<symbol id="at-sign"><circle cx="12" cy="12" r="4"/><path d="M16 8v5a3 3 0 0 0 6 0v-1a10 10 0 1 0-4 8"/></symbol>
<symbol id="award"><circle cx="12" cy="8" r="6"/><path d="M15.48 12.89 17 22l-5-3-5 3 1.52-9.11"/></symbol>
<symbol id="badge"><path d="M3.85 8.62a4 4 0 0 1 4.78-4.77 4 4 0 0 1 6.74 0 4 4 0 0 1 4.78 4.78 4 4 0 0 1 0 6.74 4 4 0 0 1-4.77 4.78 4 4 0 0 1-6.75 0 4 4 0 0 1-4.78-4.77 4 4 0 0 1 0-6.76"/></symbol>
<symbol id="badge-alert"><path d="M3.85 8.62a4 4 0 0 1 4.78-4.77 4 4 0 0 1 6.74 0 4 4 0 0 1 4.78 4.78 4 4 0 0 1 0 6.74 4 4 0 0 1-4.77 4.78 4 4 0 0 1-6.75 0 4 4 0 0 1-4.78-4.77 4 4 0 0 1 0-6.76M12 8v4M12 16z"/></symbol>
<symbol id="badge-cent"><path d="M3.85 8.62a4 4 0 0 1 4.78-4.77 4 4 0 0 1 6.74 0 4 4 0 0 1 4.78 4.78 4 4 0 0 1 0 6.74 4 4 0 0 1-4.77 4.78 4 4 0 0 1-6.75 0 4 4 0 0 1-4.78-4.77 4 4 0 0 1 0-6.76M12 7v10"/><path d="M15.4 10a4 4 0 1 0 0 4"/></symbol>
<symbol id="badge-check"><path d="M3.85 8.62a4 4 0 0 1 4.78-4.77 4 4 0 0 1 6.74 0 4 4 0 0 1 4.78 4.78 4 4 0 0 1 0 6.74 4 4 0 0 1-4.77 4.78 4 4 0 0 1-6.75 0 4 4 0 0 1-4.78-4.77 4 4 0 0 1 0-6.76"/><path d="m9 12 2 2 4-4"/></symbol>
<symbol id="ban"><circle cx="12" cy="12" r="10"/><path d="m4.9 4.9 14.2 14.2"/></symbol>
<symbol id="bar-chart"><path d="M18 20V10m-6 10V4M6 20v-6"/></symbol>
<symbol id="bell"><path d="M6 8a6 6 0 0 1 12 0c0 7 3 9 3 9H3s3-2 3-9m4.3 13a1.94 1.94 0 0 0 3.4 0"/></symbol>
<symbol id="bell-off"><path d="M8.7 3A6 6 0 0 1 18 8a21 21 0 0 0 .6 5M17 17H3s3-2 3-9a5 5 0 0 1 .3-1.7m4 14.7a1.94 1.94 0 0 0 3.4 0M2 2l20 20"/></symbol>
<symbol id="bell-ring"><path d="M6 8a6 6 0 0 1 12 0c0 7 3 9 3 9H3s3-2 3-9m4.3 13a1.94 1.94 0 0 0 3.4 0M4 2C2.8 3.7 2 5.7 2 8m20 0c0-2.3-.8-4.3-2-6"/></symbol>
<symbol id="blocks"><rect width="7" height="7" x="14" y="3" rx="1"/><path d="M10 21V8a1 1 0 0 0-1-1H4a1 1 0 0 0-1 1v12a1 1 0 0 0 1 1h12a1 1 0 0 0 1-1v-5a1 1 0 0 0-1-1H3"/></symbol>
<symbol id="bolt"><path d="M21 16V8a2 2 0 0 0-1-1.73l-7-4a2 2 0 0 0-2 0l-7 4A2 2 0 0 0 3 8v8a2 2 0 0 0 1 1.73l7 4a2 2 0 0 0 2 0l7-4A2 2 0 0 0 21 16"/><circle cx="12" cy="12" r="4"/></symbol>
<symbol id="book"><path d="M4 19.5v-15A2.5 2.5 0 0 1 6.5 2H20v20H6.5a2.5 2.5 0 0 1 0-5H20"/></symbol>
<symbol id="book-marked"><path d="M4 19.5v-15A2.5 2.5 0 0 1 6.5 2H20v20H6.5a2.5 2.5 0 0 1 0-5H20"/><path d="M10 2v8l3-3 3 3V2"/></symbol>
<symbol id="book-open"><path d="M2 3h6a4 4 0 0 1 4 4v14a3 3 0 0 0-3-3H2zm20 0h-6a4 4 0 0 0-4 4v14a3 3 0 0 1 3-3h7z"/></symbol>
<symbol id="bookmark"><path d="m19 21-7-4-7 4V5a2 2 0 0 1 2-2h10a2 2 0 0 1 2 2z"/></symbol>
<symbol id="bookmark-check"><path d="m19 21-7-4-7 4V5a2 2 0 0 1 2-2h10a2 2 0 0 1 2 2Z"/><path d="m9 10 2 2 4-4"/></symbol>
<symbol id="bot"><path d="M12 8V4H8"/><rect width="16" height="12" x="4" y="8" rx="2"/><path d="M2 14h2m16 0h2m-7-1v2m-6-2v2"/></symbol>
<symbol id="bug"><path d="m8 2 1.88 1.88m4.24 0L16 2M9 7.13v-1a3 3 0 1 1 6 0v1"/><path d="M12 20c-3.3 0-6-2.7-6-6v-3a4 4 0 0 1 4-4h4a4 4 0 0 1 4 4v3c0 3.3-2.7 6-6 6m0 0v-9"/><path d="M6.53 9A4 4 0 0 1 3 5m3 8H2m1 8c0-2.1 1.7-3.9 3.8-4M20.97 5c0 2.1-1.6 3.8-3.5 4M22 13h-4m-.8 4c2.1.1 3.8 1.9 3.8 4"/></symbol>
<symbol id="calendar"><path d="M8 2v4m8-4v4"/><rect width="18" height="18" x="3" y="4" rx="2"/><path d="M3 10h18"/></symbol>
<symbol id="calendar-check"><path d="M8 2v4m8-4v4"/><rect width="18" height="18" x="3" y="4" rx="2"/><path d="M3 10h18M9 16l2 2 4-4"/></symbol>
<symbol id="calendar-fold"><path d="M8 2v4m8-4v4m5 11V6a2 2 0 0 0-2-2H5a2 2 0 0 0-2 2v14a2 2 0 0 0 2 2h11ZM3 10h18"/><path d="M15 22v-4a2 2 0 0 1 2-2h4"/></symbol>
<symbol id="camera"><path d="M14.5 4h-5L7 7H4a2 2 0 0 0-2 2v9a2 2 0 0 0 2 2h16a2 2 0 0 0 2-2V9a2 2 0 0 0-2-2h-3z"/><circle cx="12" cy="13" r="3"/></symbol>
<symbol id="check"><path d="M20 6 9 17l-5-5"/></symbol>
<symbol id="check-check"><path d="M18 6 7 17l-5-5m20-2-7.5 7.5L13 16"/></symbol>
<symbol id="chevron-down"><path d="m6 9 6 6 6-6"/></symbol>
<symbol id="chevron-down-circle"><circle cx="12" cy="12" r="10"/><path d="m16 10-4 4-4-4"/></symbol>
<symbol id="chevron-down-square"><rect width="18" height="18" x="3" y="3" rx="2"/><path d="m16 10-4 4-4-4"/></symbol>
<symbol id="chevron-first"><path d="m17 18-6-6 6-6M7 6v12"/></symbol>
<symbol id="chevron-last"><path d="m7 18 6-6-6-6m10 0v12"/></symbol>
<symbol id="chevron-left"><path d="m15 18-6-6 6-6"/></symbol>
<symbol id="chevron-left-circle"><circle cx="12" cy="12" r="10"/><path d="m14 16-4-4 4-4"/></symbol>
<symbol id="chevron-left-square"><rect width="18" height="18" x="3" y="3" rx="2"/><path d="m14 16-4-4 4-4"/></symbol>
<symbol id="chevron-right"><path d="m9 18 6-6-6-6"/></symbol>
<symbol id="chevron-right-circle"><circle cx="12" cy="12" r="10"/><path d="m10 8 4 4-4 4"/></symbol>
<symbol id="chevron-right-square"><rect width="18" height="18" x="3" y="3" rx="2"/><path d="m10 8 4 4-4 4"/></symbol>
<symbol id="chevron-up"><path d="m18 15-6-6-6 6"/></symbol>
<symbol id="chevron-up-circle"><circle cx="12" cy="12" r="10"/><path d="m8 14 4-4 4 4"/></symbol>
<symbol id="chevron-up-square"><rect width="18" height="18" x="3" y="3" rx="2"/><path d="m8 14 4-4 4 4"/></symbol>
<symbol id="circle-fading-plus"><path d="M12 2a10 10 0 0 1 7.38 16.75M12 8v8m4-4H8M2.5 8.88a10 10 0 0 0-.5 3M2.83 16a10 10 0 0 0 2.43 3.4M4.64 5.24a10 10 0 0 1 .89-.86m3.11 17.04a10 10 0 0 0 7.64-.38"/></symbol>
<symbol id="circle-slash"><path d="m9 15 6-6"/><circle cx="12" cy="12" r="10"/></symbol>
<symbol id="circle-slash-2"><circle cx="12" cy="12" r="10"/><path d="M22 2 2 22"/></symbol>
<symbol id="circle-user"><circle cx="12" cy="12" r="10"/><circle cx="12" cy="10" r="3"/><path d="M7 20.66V19a2 2 0 0 1 2-2h6a2 2 0 0 1 2 2v1.66"/></symbol>
<symbol id="clipboard"><rect width="8" height="4" x="8" y="2" rx="1" ry="1"/><path d="M16 4h2a2 2 0 0 1 2 2v14a2 2 0 0 1-2 2H6a2 2 0 0 1-2-2V6a2 2 0 0 1 2-2h2"/></symbol>
<symbol id="clipboard-check"><rect width="8" height="4" x="8" y="2" rx="1" ry="1"/><path d="M16 4h2a2 2 0 0 1 2 2v14a2 2 0 0 1-2 2H6a2 2 0 0 1-2-2V6a2 2 0 0 1 2-2h2"/><path d="m9 14 2 2 4-4"/></symbol>
<symbol id="cloud"><path d="M17.5 19H9a7 7 0 1 1 6.71-9h1.79a4.5 4.5 0 1 1 0 9"/></symbol>
<symbol id="cloud-off"><path d="m2 2 20 20M5.78 5.78A7 7 0 0 0 9 19h8.5a5 5 0 0 0 1.3-.2m2.73-2.3A4.5 4.5 0 0 0 17.5 10h-1.79A7 7 0 0 0 10 5.07"/></symbol>
<symbol id="code"><path d="m18 16 4-4-4-4M6 8l-4 4 4 4m8.5-12-5 16"/></symbol>
<symbol id="command"><path d="M15 6v12a3 3 0 1 0 3-3H6a3 3 0 1 0 3 3V6a3 3 0 1 0-3 3h12a3 3 0 1 0-3-3"/></symbol>
<symbol id="component"><path d="M5.5 8.5 9 12l-3.5 3.5L2 12zM12 2l3.5 3.5L12 9 8.5 5.5zm6.5 6.5L22 12l-3.5 3.5L15 12zM12 15l3.5 3.5L12 22l-3.5-3.5z"/></symbol>
<symbol id="construction"><rect width="20" height="8" x="2" y="6" rx="1"/><path d="M17 14v7M7 14v7M17 3v3M7 3v3m3 8L2.3 6.3M14 6l7.7 7.7M8 6l8 8"/></symbol>
<symbol id="cookie"><path d="M12 2a10 10 0 1 0 10 10 4 4 0 0 1-5-5 4 4 0 0 1-5-5m-1 15v.01M7 14"/></symbol>
<symbol id="copy"><rect width="14" height="14" x="8" y="8" rx="2" ry="2"/><path d="M4 16a2 2 0 0 1-2-2V4c0-1.1.9-2 2-2h10a2 2 0 0 1 2 2"/></symbol>
<symbol id="copy-check"><path d="m12 15 2 2 4-4"/><rect width="14" height="14" x="8" y="8" rx="2" ry="2"/><path d="M4 16a2 2 0 0 1-2-2V4c0-1.1.9-2 2-2h10a2 2 0 0 1 2 2"/></symbol>
<symbol id="copyright"><circle cx="12" cy="12" r="10"/><path d="M14.83 14.83a4 4 0 1 1 0-5.66"/></symbol>
<symbol id="corner-down-left"><path d="m9 10-5 5 5 5"/><path d="M20 4v7a4 4 0 0 1-4 4H4"/></symbol>
<symbol id="corner-down-right"><path d="m15 10 5 5-5 5"/><path d="M4 4v7a4 4 0 0 0 4 4h12"/></symbol>
<symbol id="corner-left-down"><path d="m14 15-5 5-5-5"/><path d="M20 4h-7a4 4 0 0 0-4 4v12"/></symbol>
<symbol id="corner-left-up"><path d="M14 9 9 4 4 9"/><path d="M20 20h-7a4 4 0 0 1-4-4V4"/></symbol>
<symbol id="corner-right-down"><path d="m10 15 5 5 5-5"/><path d="M4 4h7a4 4 0 0 1 4 4v12"/></symbol>
<symbol id="corner-right-up"><path d="m10 9 5-5 5 5"/><path d="M4 20h7a4 4 0 0 0 4-4V4"/></symbol>
<symbol id="corner-up-left"><path d="M9 14 4 9l5-5"/><path d="M20 20v-7a4 4 0 0 0-4-4H4"/></symbol>
<symbol id="corner-up-right"><path d="m15 14 5-5-5-5"/><path d="M4 20v-7a4 4 0 0 1 4-4h12"/></symbol>
<symbol id="eye"><path d="M2 12s3-7 10-7 10 7 10 7-3 7-10 7-10-7-10-7"/><circle cx="12" cy="12" r="3"/></symbol>
<symbol id="eye-off"><path d="M10.73 5.08a10.74 10.74 0 0 1 11.21 6.58 1 1 0 0 1 0 .7 10.75 10.75 0 0 1-1.44 2.49M14.08 14.16a3 3 0 0 1-4.24-4.24"/><path d="M17.48 17.5a10.75 10.75 0 0 1-15.42-5.15 1 1 0 0 1 0-.7 10.75 10.75 0 0 1 4.45-5.14M2 2l20 20"/></symbol>
<symbol id="file"><path d="M15 2H6a2 2 0 0 0-2 2v16a2 2 0 0 0 2 2h12a2 2 0 0 0 2-2V7Z"/><path d="M14 2v4a2 2 0 0 0 2 2h4"/></symbol>
<symbol id="file-minus"><path d="M15 2H6a2 2 0 0 0-2 2v16a2 2 0 0 0 2 2h12a2 2 0 0 0 2-2V7Z"/><path d="M14 2v4a2 2 0 0 0 2 2h4M9 15h6"/></symbol>
<symbol id="file-plus"><path d="M15 2H6a2 2 0 0 0-2 2v16a2 2 0 0 0 2 2h12a2 2 0 0 0 2-2V7Z"/><path d="M14 2v4a2 2 0 0 0 2 2h4M9 15h6m-3 3v-6"/></symbol>
<symbol id="film"><rect width="18" height="18" x="3" y="3" rx="2"/><path d="M7 3v18M3 7.5h4M3 12h18M3 16.5h4M17 3v18m0-13.5h4m-4 9h4"/></symbol>
<symbol id="fingerprint"><path d="M2 12C2 6.5 6.5 2 12 2a10 10 0 0 1 8 4"/><path d="M5 19.5C5.5 18 6 15 6 12q0-1.05.34-2m10.95 11.02c.12-.6.43-2.3.5-3.02M12 10a2 2 0 0 0-2 2c0 1.02-.1 2.51-.26 4m-1.09 6c.21-.66.45-1.32.57-2M14 13.12c0 2.38 0 6.38-1 8.88m8.8-6c.2-2 .13-5.35 0-6M9 6.8a6 6 0 0 1 9 5.2c0 .47 0 1.17-.02 2"/></symbol>
<symbol id="flag"><path d="M4 15s1-1 4-1 5 2 8 2 4-1 4-1V3s-1 1-4 1-5-2-8-2-4 1-4 1zm0 7v-7"/></symbol>
<symbol id="flag-off"><path d="M8 2c3 0 5 2 8 2s4-1 4-1v11M4 22V4m0 11s1-1 4-1 5 2 8 2M2 2l20 20"/></symbol>
<symbol id="flask-conical"><path d="M10 2v7.53a2 2 0 0 1-.21.9L4.72 20.54a1 1 0 0 0 .9 1.45h12.76a1 1 0 0 0 .9-1.45l-5.07-10.13a2 2 0 0 1-.21-.9V2M8.5 2h7M7 16h10"/></symbol>
<symbol id="flask-conical-off"><path d="M10 10 4.72 20.55a1 1 0 0 0 .9 1.45h12.76a1 1 0 0 0 .9-1.45l-1.27-2.54M10 2v2.34M14 2v6.34M8.5 2h7M7 16h9M2 2l20 20"/></symbol>
<symbol id="folder"><path d="M20 20a2 2 0 0 0 2-2V8a2 2 0 0 0-2-2h-7.9a2 2 0 0 1-1.69-.9L9.6 3.9A2 2 0 0 0 7.93 3H4a2 2 0 0 0-2 2v13a2 2 0 0 0 2 2Z"/></symbol>
<symbol id="folder-archive"><circle cx="15" cy="19" r="2"/><path d="M20.9 19.8A2 2 0 0 0 22 18V8a2 2 0 0 0-2-2h-7.9a2 2 0 0 1-1.69-.9L9.6 3.9A2 2 0 0 0 7.93 3H4a2 2 0 0 0-2 2v13a2 2 0 0 0 2 2h5.1m5.9-9v-1m0 7v-2"/></symbol>
<symbol id="folder-check"><path d="M20 20a2 2 0 0 0 2-2V8a2 2 0 0 0-2-2h-7.9a2 2 0 0 1-1.69-.9L9.6 3.9A2 2 0 0 0 7.93 3H4a2 2 0 0 0-2 2v13a2 2 0 0 0 2 2Z"/><path d="m9 13 2 2 4-4"/></symbol>
<symbol id="form-input"><rect width="20" height="12" x="2" y="6" rx="2"/><path d="M17 12h.01M7 12"/></symbol>
<symbol id="forward"><path d="m15 17 5-5-5-5"/><path d="M4 18v-2a4 4 0 0 1 4-4h12"/></symbol>
<symbol id="gauge"><path d="m12 14 4-4M3.34 19a10 10 0 1 1 17.32 0"/></symbol>
<symbol id="gem"><path d="M6 3h12l4 6-10 13L2 9Z"/><path d="M11 3 8 9l4 13 4-13-3-6M2 9h20"/></symbol>
<symbol id="gift"><rect width="18" height="4" x="3" y="8" rx="1"/><path d="M12 8v13m7-9v7a2 2 0 0 1-2 2H7a2 2 0 0 1-2-2v-7m2.5-4a2.5 2.5 0 0 1 0-5A4.8 8 0 0 1 12 8a4.8 8 0 0 1 4.5-5 2.5 2.5 0 0 1 0 5"/></symbol>
<symbol id="git-branch"><path d="M6 3v12"/><circle cx="18" cy="6" r="3"/><circle cx="6" cy="18" r="3"/><path d="M18 9a9 9 0 0 1-9 9"/></symbol>
<symbol id="github"><path d="M15 22v-4a4.8 4.8 0 0 0-1-3.5c3 0 6-2 6-5.5a5.4 5.4 0 0 0-1-3.5A7.4 7.4 0 0 0 19 2s-1 0-3 1.5c-2.64-.5-5.36-.5-8 0C6 2 5 2 5 2a7 7 0 0 0 0 3.5A5.4 5.4 0 0 0 4 9c0 3.5 3 5.5 6 5.5A4.7 4.7 0 0 0 9 18v4"/><path d="M9 18c-4.51 2-5-2-7-2"/></symbol>
<symbol id="gitlab"><path d="m22 13.29-3.33-10a.4.4 0 0 0-.14-.18.4.4 0 0 0-.22-.11.4.4 0 0 0-.23.07.4.4 0 0 0-.14.18l-2.26 6.67H8.32L6.1 3.26a.4.4 0 0 0-.1-.18.4.4 0 0 0-.26-.08.4.4 0 0 0-.23.07.4.4 0 0 0-.14.18L2 13.29a.74.74 0 0 0 .27.83L12 21l9.69-6.88a.7.7 0 0 0 .31-.83"/></symbol>
<symbol id="globe"><circle cx="12" cy="12" r="10"/><path d="M12 2a14.5 14.5 0 0 0 0 20 14.5 14.5 0 0 0 0-20M2 12h20"/></symbol>
<symbol id="globe-2"><path d="M21.54 15H17a2 2 0 0 0-2 2v4.54M7 3.34V5a3 3 0 0 0 3 3 2 2 0 0 1 2 2c0 1.1.9 2 2 2a2 2 0 0 0 2-2c0-1.1.9-2 2-2h3.17M11 21.95V18a2 2 0 0 0-2-2 2 2 0 0 1-2-2v-1a2 2 0 0 0-2-2H2.05"/><circle cx="12" cy="12" r="10"/></symbol>
<symbol id="graduation-cap"><path d="M22 10v6M2 10l10-5 10 5-10 5z"/><path d="M6 12v5c3 3 9 3 12 0v-5"/></symbol>
<symbol id="grid-2x2"><rect width="18" height="18" x="3" y="3" rx="2"/><path d="M3 12h18m-9-9v18"/></symbol>
<symbol id="grid-3x3"><rect width="18" height="18" x="3" y="3" rx="2"/><path d="M3 9h18M3 15h18M9 3v18m6-18v18"/></symbol>
<symbol id="grip-horizontal"><circle cx="12" cy="9" r="1"/><circle cx="19" cy="9" r="1"/><circle cx="5" cy="9" r="1"/><circle cx="12" cy="15" r="1"/><circle cx="19" cy="15" r="1"/><circle cx="5" cy="15" r="1"/></symbol>
<symbol id="grip-vertical"><circle cx="9" cy="12" r="1"/><circle cx="9" cy="5" r="1"/><circle cx="9" cy="19" r="1"/><circle cx="15" cy="12" r="1"/><circle cx="15" cy="5" r="1"/><circle cx="15" cy="19" r="1"/></symbol>
<symbol id="hash"><path d="M4 9h16M4 15h16M10 3 8 21m8-18-2 18"/></symbol>
<symbol id="heart"><path d="M19 14c1.49-1.46 3-3.21 3-5.5A5.5 5.5 0 0 0 16.5 3c-1.76 0-3 .5-4.5 2-1.5-1.5-2.74-2-4.5-2A5.5 5.5 0 0 0 2 8.5c0 2.3 1.5 4.05 3 5.5l7 7Z"/></symbol>
<symbol id="heart-crack"><path d="M19 14c1.49-1.46 3-3.21 3-5.5A5.5 5.5 0 0 0 16.5 3c-1.76 0-3 .5-4.5 2-1.5-1.5-2.74-2-4.5-2A5.5 5.5 0 0 0 2 8.5c0 2.3 1.5 4.05 3 5.5l7 7Z"/><path d="m12 13-1-1 2-2-3-3 2-2"/></symbol>
<symbol id="heart-off"><path d="m2 2 20 20m-5.5-5.5L12 21l-7-7c-1.5-1.45-3-3.2-3-5.5a5.5 5.5 0 0 1 2.14-4.35M8.76 3.1c1.15.22 2.13.78 3.24 1.9 1.5-1.5 2.74-2 4.5-2A5.5 5.5 0 0 1 22 8.5c0 2.12-1.3 3.78-2.67 5.17"/></symbol>
<symbol id="home"><path d="m3 9 9-7 9 7v11a2 2 0 0 1-2 2H5a2 2 0 0 1-2-2z"/><path d="M9 22V12h6v10"/></symbol>
<symbol id="image"><rect width="18" height="18" x="3" y="3" rx="2" ry="2"/><circle cx="9" cy="9" r="2"/><path d="m21 15-3.09-3.09a2 2 0 0 0-2.82 0L6 21"/></symbol>
<symbol id="indian-rupee"><path d="M6 3h12M6 8h12M6 13l8.5 8M6 13h3m0 0c6.67 0 6.67-10 0-10"/></symbol>
<symbol id="info"><circle cx="12" cy="12" r="10"/><path d="M12 16v-4m0-4"/></symbol>
<symbol id="key"><path d="M2 18v3c0 .6.4 1 1 1h4v-3h3v-3h2l1.4-1.4a6.5 6.5 0 1 0-4-4Z"/><circle cx="16.5" cy="7.5" r=".5"/></symbol>
<symbol id="layout-dashboard"><rect width="7" height="9" x="3" y="3" rx="1"/><rect width="7" height="5" x="14" y="3" rx="1"/><rect width="7" height="9" x="14" y="12" rx="1"/><rect width="7" height="5" x="3" y="16" rx="1"/></symbol>
<symbol id="layout-grid"><rect width="7" height="7" x="3" y="3" rx="1"/><rect width="7" height="7" x="14" y="3" rx="1"/><rect width="7" height="7" x="14" y="14" rx="1"/><rect width="7" height="7" x="3" y="14" rx="1"/></symbol>
<symbol id="layout-list"><rect width="7" height="7" x="3" y="3" rx="1"/><rect width="7" height="7" x="3" y="14" rx="1"/><path d="M14 4h7m-7 5h7m-7 6h7m-7 5h7"/></symbol>
<symbol id="layout-panel-left"><rect width="7" height="18" x="3" y="3" rx="1"/><rect width="7" height="7" x="14" y="3" rx="1"/><rect width="7" height="7" x="14" y="14" rx="1"/></symbol>
<symbol id="layout-panel-top"><rect width="18" height="7" x="3" y="3" rx="1"/><rect width="7" height="7" x="3" y="14" rx="1"/><rect width="7" height="7" x="14" y="14" rx="1"/></symbol>
<symbol id="layout-template"><rect width="18" height="7" x="3" y="3" rx="1"/><rect width="9" height="7" x="3" y="14" rx="1"/><rect width="5" height="7" x="16" y="14" rx="1"/></symbol>
<symbol id="leaf"><path d="M11 20A7 7 0 0 1 9.8 6.1C15.5 5 17 4.48 19 2c1 2 2 4.18 2 8 0 5.5-4.78 10-10 10"/><path d="M2 21c0-3 1.85-5.36 5.08-6C9.5 14.52 12 13 13 12"/></symbol>
<symbol id="library-big"><rect width="8" height="18" x="3" y="3" rx="1"/><path d="M7 3v18m13.4-2.1c.2.5-.1 1.1-.6 1.3l-1.9.7c-.5.2-1.1-.1-1.3-.6L11.1 5.1c-.2-.5.1-1.1.6-1.3l1.9-.7c.5-.2 1.1.1 1.3.6Z"/></symbol>
<symbol id="link"><path d="M9 17H7A5 5 0 0 1 7 7h2m6 0h2a5 5 0 1 1 0 10h-2m-7-5h8"/></symbol>
<symbol id="link-off"><path d="M9 17H7A5 5 0 0 1 7 7m8 0h2a5 5 0 0 1 4 8M8 12h4M2 2l20 20"/></symbol>
<symbol id="linkedin"><path d="M16 8a6 6 0 0 1 6 6v7h-4v-7a2 2 0 0 0-2-2 2 2 0 0 0-2 2v7h-4v-7a6 6 0 0 1 6-6M2 9h4v12H2z"/><circle cx="4" cy="4" r="2"/></symbol>
<symbol id="lock"><rect width="18" height="11" x="3" y="11" rx="2" ry="2"/><path d="M7 11V7a5 5 0 0 1 10 0v4"/></symbol>
<symbol id="mail"><rect width="20" height="16" x="2" y="4" rx="2"/><path d="m22 7-8.97 5.7a1.9 1.9 0 0 1-2.06 0L2 7"/></symbol>
<symbol id="map-pin"><path d="M20 10c0 6-8 12-8 12s-8-6-8-12a8 8 0 0 1 16 0"/><circle cx="12" cy="10" r="3"/></symbol>
<symbol id="map-pinned"><path d="M18 8c0 4.5-6 9-6 9s-6-4.5-6-9a6 6 0 0 1 12 0"/><circle cx="12" cy="8" r="2"/><path d="M8.84 14H5a1 1 0 0 0-.9.7l-2 6c-.1.1-.1.2-.1.3 0 .6.4 1 1 1h18c.6 0 1-.4 1-1 0-.1 0-.2-.1-.3l-2-6a1 1 0 0 0-.9-.7h-3.83"/></symbol>
<symbol id="menu"><path d="M4 12h16M4 6h16M4 18h16"/></symbol>
<symbol id="moon"><path d="M12 3a6 6 0 0 0 9 9 9 9 0 1 1-9-9"/></symbol>
<symbol id="more-horizontal"><circle cx="12" cy="12" r="1"/><circle cx="19" cy="12" r="1"/><circle cx="5" cy="12" r="1"/></symbol>
<symbol id="more-vertical"><circle cx="12" cy="12" r="1"/><circle cx="12" cy="5" r="1"/><circle cx="12" cy="19" r="1"/></symbol>
<symbol id="mouse"><rect width="14" height="20" x="5" y="2" rx="7"/><path d="M12 6v4"/></symbol>
<symbol id="music"><path d="M9 18V5l12-2v13"/><circle cx="6" cy="18" r="3"/><circle cx="18" cy="16" r="3"/></symbol>
<symbol id="network"><rect width="6" height="6" x="16" y="16" rx="1"/><rect width="6" height="6" x="2" y="16" rx="1"/><rect width="6" height="6" x="9" y="2" rx="1"/><path d="M5 16v-3a1 1 0 0 1 1-1h12a1 1 0 0 1 1 1v3m-7-4V8"/></symbol>
<symbol id="paint-bucket"><path d="m19 11-8-8-8.6 8.6a2 2 0 0 0 0 2.8l5.2 5.2c.8.8 2 .8 2.8 0zM5 2l5 5m-8 6h15m5 7a2 2 0 1 1-4 0c0-1.6 1.7-2.4 2-4 .3 1.6 2 2.4 2 4"/></symbol>
<symbol id="paintbrush"><path d="M18.37 2.63 14 7l-1.59-1.59a2 2 0 0 0-2.82 0L8 7l9 9 1.59-1.59a2 2 0 0 0 0-2.82L17 10l4.37-4.37a2.12 2.12 0 1 0-3-3"/><path d="M9 8c-2 3-4 3.5-7 4l8 10c2-1 6-5 6-7m-1.5 2.5L4.5 15"/></symbol>
<symbol id="paperclip"><path d="m21.44 11.05-9.19 9.19a6 6 0 0 1-8.49-8.49l8.57-8.57A4 4 0 1 1 18 8.84l-8.59 8.57a2 2 0 0 1-2.83-2.83l8.49-8.48"/></symbol>
<symbol id="pause"><path d="M6 4h4v16H6zm8 0h4v16h-4z"/></symbol>
<symbol id="pen"><path d="M17 3a2.85 2.83 0 1 1 4 4L7.5 20.5 2 22l1.5-5.5Z"/></symbol>
<symbol id="pen-line"><path d="M12 20h9M16.5 3.5a2.12 2.12 0 0 1 3 3L7 19l-4 1 1-4Z"/></symbol>
<symbol id="pencil"><path d="M17 3a2.85 2.83 0 1 1 4 4L7.5 20.5 2 22l1.5-5.5Zm-2 2 4 4"/></symbol>
<symbol id="pencil-line"><path d="M12 20h9M16.5 3.5a2.12 2.12 0 0 1 3 3L7 19l-4 1 1-4ZM15 5l3 3"/></symbol>
<symbol id="pencil-ruler"><path d="m15 5 4 4m-6-2L8.7 2.7a2.4 2.4 0 0 0-3.4 0L2.7 5.3a2.4 2.4 0 0 0 0 3.4L7 13m1-7 2-2M2 22l5.5-1.5L21.17 6.83a2.82 2.82 0 0 0-4-4L3.5 16.5Zm16-6 2-2"/><path d="m17 11 4.3 4.3a2.4 2.4 0 0 1 0 3.4l-2.6 2.6a2.4 2.4 0 0 1-3.4 0L11 17"/></symbol>
<symbol id="phone"><path d="M22 16.92v3a2 2 0 0 1-2.18 2 20 20 0 0 1-8.63-3.07 19.5 19.5 0 0 1-6-6 20 20 0 0 1-3.07-8.67A2 2 0 0 1 4.11 2h3a2 2 0 0 1 2 1.72 13 13 0 0 0 .7 2.81 2 2 0 0 1-.45 2.11L8.09 9.91a16 16 0 0 0 6 6l1.27-1.27a2 2 0 0 1 2.11-.45 13 13 0 0 0 2.81.7A2 2 0 0 1 22 16.92"/></symbol>
<symbol id="pin"><path d="M12 17v5m-7-5h14v-1.76a2 2 0 0 0-1.11-1.79l-1.78-.9A2 2 0 0 1 15 10.76V6h1a2 2 0 0 0 0-4H8a2 2 0 0 0 0 4h1v4.76a2 2 0 0 1-1.11 1.79l-1.78.9A2 2 0 0 0 5 15.24Z"/></symbol>
<symbol id="pin-off"><path d="m2 2 20 20m-10-5v5M9 9v1.76a2 2 0 0 1-1.11 1.79l-1.78.9A2 2 0 0 0 5 15.24V17h12m-2-7.66V6h1a2 2 0 0 0 0-4H7.89"/></symbol>
<symbol id="play"><path d="m5 3 14 9-14 9z"/></symbol>
<symbol id="plus"><path d="M5 12h14m-7-7v14"/></symbol>
<symbol id="plus-circle"><circle cx="12" cy="12" r="10"/><path d="M8 12h8m-4-4v8"/></symbol>
<symbol id="printer"><path d="M6 9V2h12v7M6 18H4a2 2 0 0 1-2-2v-5a2 2 0 0 1 2-2h16a2 2 0 0 1 2 2v5a2 2 0 0 1-2 2h-2"/><path d="M6 14h12v8H6z"/></symbol>
<symbol id="qr-code"><rect width="5" height="5" x="3" y="3" rx="1"/><rect width="5" height="5" x="16" y="3" rx="1"/><rect width="5" height="5" x="3" y="16" rx="1"/><path d="M21 16h-3a2 2 0 0 0-2 2v3m5 0v.01M12 7v3a2 2 0 0 1-2 2H7m5 4v.01M16 12h1m-5 9v-1"/></symbol>
<symbol id="rss"><path d="M4 11a9 9 0 0 1 9 9M4 4a16 16 0 0 1 16 16"/><circle cx="5" cy="19" r="1"/></symbol>
<symbol id="save"><path d="M19 21H5a2 2 0 0 1-2-2V5a2 2 0 0 1 2-2h11l5 5v11a2 2 0 0 1-2 2"/><path d="M17 21v-8H7v8M7 3v5h8"/></symbol>
<symbol id="search"><circle cx="11" cy="11" r="8"/><path d="m21 21-4.3-4.3"/></symbol>
<symbol id="send"><path d="m22 2-7 20-4-9-9-4Zm0 0L11 13"/></symbol>
<symbol id="send-horizontal"><path d="m3 3 3 9-3 9 19-9Zm3 9h16"/></symbol>
<symbol id="settings"><path d="M12.22 2h-.44a2 2 0 0 0-2 2v.18a2 2 0 0 1-1 1.73l-.43.25a2 2 0 0 1-2 0l-.15-.08a2 2 0 0 0-2.73.73l-.22.38a2 2 0 0 0 .73 2.73l.15.1a2 2 0 0 1 1 1.72v.51a2 2 0 0 1-1 1.74l-.15.09a2 2 0 0 0-.73 2.73l.22.38a2 2 0 0 0 2.73.73l.15-.08a2 2 0 0 1 2 0l.43.25a2 2 0 0 1 1 1.73V20a2 2 0 0 0 2 2h.44a2 2 0 0 0 2-2v-.18a2 2 0 0 1 1-1.73l.43-.25a2 2 0 0 1 2 0l.15.08a2 2 0 0 0 2.73-.73l.22-.39a2 2 0 0 0-.73-2.73l-.15-.08a2 2 0 0 1-1-1.74v-.5a2 2 0 0 1 1-1.74l.15-.09a2 2 0 0 0 .73-2.73l-.22-.38a2 2 0 0 0-2.73-.73l-.15.08a2 2 0 0 1-2 0l-.43-.25a2 2 0 0 1-1-1.73V4a2 2 0 0 0-2-2"/><circle cx="12" cy="12" r="3"/></symbol>
<symbol id="share"><circle cx="18" cy="5" r="3"/><circle cx="6" cy="12" r="3"/><circle cx="18" cy="19" r="3"/><path d="m8.59 13.51 6.83 3.98m-.01-10.98-6.82 3.98"/></symbol>
<symbol id="shield"><path d="M12 22s8-4 8-10V5l-8-3-8 3v7c0 6 8 10 8 10"/></symbol>
<symbol id="shield-check"><path d="M12 22s8-4 8-10V5l-8-3-8 3v7c0 6 8 10 8 10"/><path d="m9 12 2 2 4-4"/></symbol>
<symbol id="sparkle"><path d="m12 3-1.9 5.8a2 2 0 0 1-1.29 1.29L3 12l5.8 1.9a2 2 0 0 1 1.29 1.29L12 21l1.9-5.8a2 2 0 0 1 1.29-1.29L21 12l-5.8-1.9a2 2 0 0 1-1.29-1.29Z"/></symbol>
<symbol id="sparkles"><path d="m12 3-1.91 5.81A2 2 0 0 1 8.8 10.1L3 12l5.81 1.91a2 2 0 0 1 1.28 1.28L12 21l1.91-5.81a2 2 0 0 1 1.28-1.28L21 12l-5.81-1.91A2 2 0 0 1 13.9 8.8zM5 3v4m14 10v4M3 5h4m10 14h4"/></symbol>
<symbol id="star"><path d="m12 2 3.09 6.26L22 9.27l-5 4.87 1.18 6.88L12 17.77l-6.18 3.25L7 14.14 2 9.27l6.91-1.01z"/></symbol>
<symbol id="sun"><circle cx="12" cy="12" r="4"/><path d="M12 3v1m0 16v1m-9-9h1m16 0h1m-2.64-6.36-.7.7M6.34 17.66l-.7.7m0-12.72.7.7m11.32 11.32.7.7"/></symbol>
<symbol id="tag"><path d="M12.59 2.59A2 2 0 0 0 11.17 2H4a2 2 0 0 0-2 2v7.17a2 2 0 0 0 .59 1.42l8.7 8.7a2.43 2.43 0 0 0 3.42 0l6.58-6.58a2.43 2.43 0 0 0 0-3.42z"/><circle cx="7.5" cy="7.5" r=".5"/></symbol>
<symbol id="tags"><path d="m15 5 6.3 6.3a2.4 2.4 0 0 1 0 3.4L17 19"/><path d="M9.59 5.59A2 2 0 0 0 8.17 5H3a1 1 0 0 0-1 1v5.17a2 2 0 0 0 .59 1.42l5.7 5.7a2.43 2.43 0 0 0 3.42 0l3.58-3.58a2.43 2.43 0 0 0 0-3.42z"/><circle cx="6.5" cy="9.5" r=".5"/></symbol>
<symbol id="terminal"><path d="m4 17 6-6-6-6m8 14h8"/></symbol>
<symbol id="thumbs-down"><path d="M17 14V2M9 18.12 10 14H4.17a2 2 0 0 1-1.92-2.56l2.33-8A2 2 0 0 1 6.5 2H20a2 2 0 0 1 2 2v8a2 2 0 0 1-2 2h-2.76a2 2 0 0 0-1.79 1.11L12 22a3.13 3.13 0 0 1-3-3.88"/></symbol>
<symbol id="thumbs-up"><path d="M7 10v12m8-16.12L14 10h5.83a2 2 0 0 1 1.92 2.56l-2.33 8A2 2 0 0 1 17.5 22H4a2 2 0 0 1-2-2v-8a2 2 0 0 1 2-2h2.76a2 2 0 0 0 1.79-1.11L12 2a3.13 3.13 0 0 1 3 3.88"/></symbol>
<symbol id="ticket"><path d="M2 9a3 3 0 0 1 0 6v2a2 2 0 0 0 2 2h16a2 2 0 0 0 2-2v-2a3 3 0 0 1 0-6V7a2 2 0 0 0-2-2H4a2 2 0 0 0-2 2Zm11-4v2m0 10v2m0-8v2"/></symbol>
<symbol id="trash"><path d="M3 6h18m-2 0v14c0 1-1 2-2 2H7c-1 0-2-1-2-2V6m3 0V4c0-1 1-2 2-2h4c1 0 2 1 2 2v2m-6 5v6m4-6v6"/></symbol>
<symbol id="twitter"><path d="M22 4s-.7 2.1-2 3.4c1.6 10-9.4 17.3-18 11.6 2.2.1 4.4-.6 6-2C3 15.5.5 9.6 3 5c2.2 2.6 5.6 4.1 9 4-.9-4.2 4-6.6 7-3.8 1.1 0 3-1.2 3-1.2"/></symbol>
<symbol id="x"><path d="M18 6 6 18M6 6l12 12"/></symbol>
<symbol id="zoom-in"><circle cx="11" cy="11" r="8"/><path d="m21 21-4.35-4.35M11 8v6m-3-3h6"/></symbol>
<symbol id="zoom-out"><circle cx="11" cy="11" r="8"/><path d="m21 21-4.35-4.35M8 11h6"/></symbol>
</svg>